<?xml version="1.0" encoding="utf-8"?>
<!-- Generator: Adobe Illustrator 24.1.1, SVG Export Plug-In . SVG Version: 6.00 Build 0)  -->
<svg version="1.1" id="Layer_1" xmlns="http://www.w3.org/2000/svg" xmlns:xlink="http://www.w3.org/1999/xlink" x="0px" y="0px"
	 viewBox="0 0 200 200" style="enable-background:new 0 0 200 200;" xml:space="preserve">
<style type="text/css">
	.st0{fill:#85C59A;}
	.st1{fill:#FFFFFF;}
</style>
<g>
	<g>
		<path class="st0" d="M26.5,94.8V21.3h13.2l44.4,52L77,74.7V21.3h17.2v73.5H80.9L37.3,42.4l6.4-1.5v53.9H26.5z"/>
	</g>
	<g>
		<path class="st0" d="M26.5,181.1v-73.5h13.2l44.4,52l-7.1,1.5v-53.5h17.2v73.5H80.9l-43.6-52.4l6.4-1.5v53.9H26.5z"/>
	</g>
	<g>
		<path class="st0" d="M141.7,182.3c-6.5,0-12.3-1.2-17.4-3.7c-5.1-2.4-9.1-5.8-12-10c-2.9-4.2-4.4-9.1-4.4-14.5v-46.6H125v45.6
			c0,2.9,0.7,5.5,2.2,7.8c1.4,2.3,3.4,4.2,5.9,5.5c2.5,1.3,5.4,2,8.5,2c3.3,0,6.1-0.7,8.6-2c2.5-1.3,4.4-3.1,5.9-5.5
			c1.4-2.3,2.2-4.9,2.2-7.8v-45.6h17.2v46.6c0,5.4-1.5,10.2-4.4,14.5c-2.9,4.2-6.9,7.6-12,10C154,181.1,148.2,182.3,141.7,182.3z"/>
	</g>
</g>
<g>
	<ellipse class="st1" cx="116.4" cy="36.2" rx="11.7" ry="15.8"/>
	<path class="st0" d="M116.4,52.6c-6.8,0-12.3-7.4-12.3-16.5s5.5-16.5,12.3-16.5s12.3,7.4,12.3,16.5S123.2,52.6,116.4,52.6z
		 M116.4,21c-6,0-11,6.8-11,15.2s4.9,15.2,11,15.2s11-6.8,11-15.2S122.4,21,116.4,21z"/>
</g>
<g>
	<ellipse class="st0" cx="119.5" cy="36.2" rx="8.5" ry="12.9"/>
</g>
<g>
	<g>
		<path class="st0" d="M174.4,49.1l-22.3-13v-3.4l22.3-13v4.3l-19,11.3v-1.7l19,11.2V49.1z"/>
	</g>
</g>
<g>
	<g>
		<path class="st0" d="M141.5,96.2c-6.6,0-12.5-1.4-17.6-4.2c-5.1-2.8-9.1-6.6-11.9-11.5c-2.8-4.9-4.2-10.4-4.2-16.6v-6.2h12.1v6
			c0,4.2,0.9,7.9,2.8,11.1c1.8,3.2,4.4,5.7,7.6,7.5c3.2,1.8,7,2.7,11.2,2.7c4.2,0,8-0.9,11.2-2.7c3.2-1.8,5.8-4.3,7.6-7.5
			c1.8-3.2,2.8-6.9,2.8-11.1v-6h12.1v6.2c0,6.2-1.4,11.7-4.2,16.6c-2.8,4.9-6.8,8.7-11.8,11.5C154.1,94.8,148.2,96.2,141.5,96.2z"/>
	</g>
</g>
<g>
	<rect x="117.9" y="33.3" class="st1" width="6.5" height="5.9"/>
</g>
</svg>
